<?xml version="1.0" encoding="utf-8"?>
<!-- Generator: Adobe Illustrator 27.0.1, SVG Export Plug-In . SVG Version: 6.00 Build 0)  -->
<svg version="1.1" id="_レイヤー_2" xmlns="http://www.w3.org/2000/svg" xmlns:xlink="http://www.w3.org/1999/xlink" x="0px"
	 y="0px" viewBox="0 0 1799.6 1190.1" style="enable-background:new 0 0 1799.6 1190.1;" xml:space="preserve">
<style type="text/css">
	.st0{fill:none;stroke:#231815;stroke-miterlimit:10;}
	.st1{fill:#231815;}
</style>
<path class="st0" d="M278.4,123.6v-70c0-6.3-5.1-11.3-11.3-11.3H51.6c-6.3,0-11.3,5.1-11.3,11.3v70h5.7v19.6h-5.7v5.7h5.7v15.3
	h226.8v-15.3h5.7v-5.7h-5.7v-19.6C272.7,123.6,278.4,123.6,278.4,123.6z"/>
<path class="st0" d="M278.4,204.6v70c0,6.3-5.1,11.3-11.3,11.3H51.6c-6.3,0-11.3-5.1-11.3-11.3v-70h5.7v-19.6h-5.7v-5.7h5.7v-15.3
	h226.8v15.3h5.7v5.7h-5.7v19.6H278.4z"/>
<path class="st0" d="M278.4,386.5v-70c0-6.3-5.1-11.3-11.3-11.3H51.6c-6.3,0-11.3,5.1-11.3,11.3v70h5.7v19.6h-5.7v5.7h5.7v15.3
	h226.8v-15.3h5.7v-5.7h-5.7v-19.6H278.4z"/>
<path class="st0" d="M278.4,467.6v70c0,6.3-5.1,11.3-11.3,11.3H51.6c-6.3,0-11.3-5.1-11.3-11.3v-70h5.7V448h-5.7v-5.7h5.7v-15.3
	h226.8v15.3h5.7v5.7h-5.7v19.6L278.4,467.6L278.4,467.6z"/>
<path class="st0" d="M530.9,123.6v-70c0-6.3-5.1-11.3-11.3-11.3H304.2c-6.3,0-11.3,5.1-11.3,11.3v70h5.7v19.6h-5.7v5.7h5.7v15.3
	h226.8v-15.3h5.7v-5.7h-5.7v-19.6L530.9,123.6L530.9,123.6z"/>
<path class="st0" d="M530.9,204.6v70c0,6.3-5.1,11.3-11.3,11.3H304.2c-6.3,0-11.3-5.1-11.3-11.3v-70h5.7v-19.6h-5.7v-5.7h5.7v-15.3
	h226.8v15.3h5.7v5.7h-5.7v19.6H530.9L530.9,204.6z"/>
<path class="st0" d="M530.9,386.5v-70c0-6.3-5.1-11.3-11.3-11.3H304.2c-6.3,0-11.3,5.1-11.3,11.3v70h5.7v19.6h-5.7v5.7h5.7v15.3
	h226.8v-15.3h5.7v-5.7h-5.7v-19.6H530.9L530.9,386.5z"/>
<path class="st0" d="M530.9,467.6v70c0,6.3-5.1,11.3-11.3,11.3H304.2c-6.3,0-11.3-5.1-11.3-11.3v-70h5.7V448h-5.7v-5.7h5.7v-15.3
	h226.8v15.3h5.7v5.7h-5.7v19.6L530.9,467.6L530.9,467.6z"/>
<path class="st0" d="M690.5,416.1c0,39.1-31.7,70.9-70.9,70.9s-70.9-31.7-70.9-70.9s31.7-70.9,70.9-70.9S690.5,377,690.5,416.1z
	 M619.6,409.7c-3.5,0-6.4,2.9-6.4,6.4s2.9,6.4,6.4,6.4s6.4-2.9,6.4-6.4S623.2,409.7,619.6,409.7z M619.6,480.3c2.2,0,4-1.8,4-4
	s-1.8-4-4-4s-4,1.8-4,4S617.5,480.3,619.6,480.3z M619.6,359.8c2.2,0,4-1.8,4-4s-1.8-4-4-4s-4,1.8-4,4S617.5,359.8,619.6,359.8z
	 M581.9,468c1.8,1.3,4.2,0.9,5.5-0.9s0.9-4.2-0.9-5.5s-4.2-0.9-5.5,0.9S580.1,466.7,581.9,468z M652.7,370.6
	c1.8,1.3,4.2,0.9,5.5-0.9s0.9-4.2-0.9-5.5s-4.2-0.9-5.5,0.9S650.9,369.3,652.7,370.6z M558.6,435.9c0.7,2.1,2.9,3.2,5,2.5
	s3.2-2.9,2.5-5s-2.9-3.2-5-2.5C559,431.6,557.9,433.9,558.6,435.9z M673.2,398.7c0.7,2.1,2.9,3.2,5,2.5s3.2-2.9,2.5-5
	s-2.9-3.2-5-2.5S672.5,396.6,673.2,398.7z M558.6,396.3c-0.7,2.1,0.5,4.3,2.5,5s4.3-0.5,5-2.5s-0.5-4.3-2.5-5
	S559.3,394.2,558.6,396.3z M673.2,433.5c-0.7,2.1,0.5,4.3,2.5,5s4.3-0.5,5-2.5s-0.5-4.3-2.5-5S673.8,431.4,673.2,433.5z
	 M581.9,364.2c-1.8,1.3-2.2,3.8-0.9,5.5s3.8,2.2,5.5,0.9s2.2-3.8,0.9-5.5S583.7,362.9,581.9,364.2z M652.7,461.6
	c-1.8,1.3-2.2,3.8-0.9,5.5s3.8,2.2,5.5,0.9c1.8-1.3,2.2-3.8,0.9-5.5S654.5,460.3,652.7,461.6z M594.1,404.8h-1.4v22.7h1.4V404.8z
	 M645.1,404.8v22.7h1.4v-22.7H645.1z M631,390.6v-1.4h-22.7v1.4H631z M608.3,441.6v1.4H631v-1.4H608.3z"/>
<path class="st0" d="M844.2,416.1c0,39.1-31.7,70.9-70.9,70.9s-70.9-31.7-70.9-70.9s31.7-70.9,70.9-70.9S844.2,377,844.2,416.1z
	 M773.3,409.7c-3.5,0-6.4,2.9-6.4,6.4s2.9,6.4,6.4,6.4s6.4-2.9,6.4-6.4S776.8,409.7,773.3,409.7z M773.3,480.3c2.2,0,4-1.8,4-4
	s-1.8-4-4-4s-4,1.8-4,4S771.1,480.3,773.3,480.3z M773.3,359.8c2.2,0,4-1.8,4-4s-1.8-4-4-4s-4,1.8-4,4S771.1,359.8,773.3,359.8z
	 M735.6,468c1.8,1.3,4.2,0.9,5.5-0.9s0.9-4.2-0.9-5.5s-4.2-0.9-5.5,0.9S733.8,466.7,735.6,468z M806.4,370.6
	c1.8,1.3,4.2,0.9,5.5-0.9s0.9-4.2-0.9-5.5s-4.2-0.9-5.5,0.9S804.6,369.3,806.4,370.6z M712.2,435.9c0.7,2.1,2.9,3.2,5,2.5
	s3.2-2.9,2.5-5s-2.9-3.2-5-2.5C712.7,431.6,711.6,433.9,712.2,435.9z M826.8,398.7c0.7,2.1,2.9,3.2,5,2.5s3.2-2.9,2.5-5
	s-2.9-3.2-5-2.5S826.1,396.6,826.8,398.7z M712.2,396.3c-0.7,2.1,0.5,4.3,2.5,5s4.3-0.5,5-2.5s-0.5-4.3-2.5-5
	S712.9,394.2,712.2,396.3z M826.8,433.5c-0.7,2.1,0.5,4.3,2.5,5s4.3-0.5,5-2.5s-0.5-4.3-2.5-5S827.5,431.4,826.8,433.5z
	 M735.6,364.2c-1.8,1.3-2.2,3.8-0.9,5.5s3.8,2.2,5.5,0.9s2.2-3.8,0.9-5.5S737.3,362.9,735.6,364.2z M806.4,461.6
	c-1.8,1.3-2.2,3.8-0.9,5.5s3.8,2.2,5.5,0.9c1.8-1.3,2.2-3.8,0.9-5.5S808.1,460.3,806.4,461.6z M747.8,404.8h-1.4v22.7h1.4V404.8z
	 M798.8,404.8v22.7h1.4v-22.7H798.8z M784.6,390.6v-1.4H762v1.4H784.6z M762,441.6v1.4h22.7v-1.4H762z"/>
<g>
	<g>
		<polygon class="st0" points="816.9,87.6 842.4,86.4 842.4,66.1 816.9,64.9 816.9,49.3 590.2,49.3 590.2,64.9 564.7,66.1 
			564.7,86.4 590.2,87.6 590.2,103.2 590.2,118.7 564.7,119.9 564.7,140.2 590.2,141.4 590.2,157 590.2,172.6 564.7,173.8 
			564.7,194.1 590.2,195.3 590.2,210.9 590.2,226.5 564.7,227.7 564.7,247.9 590.2,249.1 590.2,264.7 595.8,278.9 811.3,278.9 
			816.9,264.7 816.9,249.1 842.4,247.9 842.4,227.7 816.9,226.5 816.9,210.9 816.9,195.3 842.4,194.1 842.4,173.8 816.9,172.6 
			816.9,157 816.9,141.4 842.4,140.2 842.4,119.9 816.9,118.7 816.9,103.2 		"/>
		<path class="st0" d="M594.4,103.2h2.8 M600.1,103.2h2.8 M605.7,103.2h2.8 M611.4,103.2h2.8 M617.1,103.2h2.8 M622.7,103.2h2.8
			 M628.4,103.2h2.8 M634,103.2h2.8 M639.7,103.2h2.8 M645.4,103.2h2.8 M651,103.2h2.8 M656.7,103.2h2.8 M662.3,103.2h2.8
			 M668,103.2h2.8 M673.7,103.2h2.8 M679.3,103.2h2.8 M685,103.2h2.8 M690.6,103.2h2.8 M696.3,103.2h2.8 M702,103.2h2.8
			 M707.6,103.2h2.8 M713.3,103.2h2.8 M718.9,103.2h2.8 M724.6,103.2h2.8 M730.3,103.2h2.8 M735.9,103.2h2.8 M741.6,103.2h2.8
			 M747.2,103.2h2.8 M752.9,103.2h2.8 M758.6,103.2h2.8 M764.2,103.2h2.8 M769.9,103.2h2.8 M775.5,103.2h2.8 M781.2,103.2h2.8
			 M786.9,103.2h2.8 M792.5,103.2h2.8 M798.2,103.2h2.8 M803.8,103.2h2.8 M809.5,103.2h2.8"/>
		<path class="st0" d="M597.3,157h-2.8 M602.9,157h-2.8 M608.6,157h-2.8 M614.3,157h-2.8 M619.9,157h-2.8 M625.6,157h-2.8
			 M631.3,157h-2.8 M636.9,157h-2.8 M642.6,157h-2.8 M648.3,157h-2.8 M654,157h-2.8 M659.6,157h-2.8 M665.3,157h-2.8 M671,157h-2.8
			 M676.6,157h-2.8 M682.3,157h-2.8 M688,157h-2.8 M693.6,157h-2.8 M699.3,157h-2.8 M705,157h-2.8 M710.7,157h-2.8 M716.3,157h-2.8
			 M722,157h-2.8 M727.7,157h-2.8 M733.3,157h-2.8 M739,157h-2.8 M744.7,157h-2.8 M750.3,157h-2.8 M756,157h-2.8 M761.7,157h-2.8
			 M767.4,157h-2.8 M773,157h-2.8 M778.7,157h-2.8 M784.4,157h-2.8 M790,157h-2.8 M795.7,157h-2.8 M801.4,157h-2.8 M807,157h-2.8
			 M812.7,157h-2.8"/>
		<path class="st0" d="M594.4,210.9h2.8 M600.1,210.9h2.8 M605.7,210.9h2.8 M611.4,210.9h2.8 M617.1,210.9h2.8 M622.7,210.9h2.8
			 M628.4,210.9h2.8 M634,210.9h2.8 M639.7,210.9h2.8 M645.4,210.9h2.8 M651,210.9h2.8 M656.7,210.9h2.8 M662.3,210.9h2.8
			 M668,210.9h2.8 M673.7,210.9h2.8 M679.3,210.9h2.8 M685,210.9h2.8 M690.6,210.9h2.8 M696.3,210.9h2.8 M702,210.9h2.8
			 M707.6,210.9h2.8 M713.3,210.9h2.8 M718.9,210.9h2.8 M724.6,210.9h2.8 M730.3,210.9h2.8 M735.9,210.9h2.8 M741.6,210.9h2.8
			 M747.2,210.9h2.8 M752.9,210.9h2.8 M758.6,210.9h2.8 M764.2,210.9h2.8 M769.9,210.9h2.8 M775.5,210.9h2.8 M781.2,210.9h2.8
			 M786.9,210.9h2.8 M792.5,210.9h2.8 M798.2,210.9h2.8 M803.8,210.9h2.8 M809.5,210.9h2.8"/>
		<path class="st0" d="M597.3,264.7h-2.8 M602.9,264.7h-2.8 M608.6,264.7h-2.8 M614.3,264.7h-2.8 M619.9,264.7h-2.8 M625.6,264.7
			h-2.8 M631.3,264.7h-2.8 M636.9,264.7h-2.8 M642.6,264.7h-2.8 M648.3,264.7h-2.8 M654,264.7h-2.8 M659.6,264.7h-2.8 M665.3,264.7
			h-2.8 M671,264.7h-2.8 M676.6,264.7h-2.8 M682.3,264.7h-2.8 M688,264.7h-2.8 M693.6,264.7h-2.8 M699.3,264.7h-2.8 M705,264.7h-2.8
			 M710.7,264.7h-2.8 M716.3,264.7h-2.8 M722,264.7h-2.8 M727.7,264.7h-2.8 M733.3,264.7h-2.8 M739,264.7h-2.8 M744.7,264.7h-2.8
			 M750.3,264.7h-2.8 M756,264.7h-2.8 M761.7,264.7h-2.8 M767.4,264.7h-2.8 M773,264.7h-2.8 M778.7,264.7h-2.8 M784.4,264.7h-2.8
			 M790,264.7h-2.8 M795.7,264.7h-2.8 M801.4,264.7h-2.8 M807,264.7h-2.8 M812.7,264.7h-2.8"/>
	</g>
	<g>
		<line class="st0" x1="590.2" y1="83.6" x2="590.2" y2="80.8"/>
		<line class="st0" x1="590.2" y1="77.9" x2="590.2" y2="75.1"/>
		<line class="st0" x1="590.2" y1="72.3" x2="590.2" y2="69.4"/>
	</g>
	<g>
		<line class="st0" x1="590.2" y1="137.5" x2="590.2" y2="134.6"/>
		<line class="st0" x1="590.2" y1="131.8" x2="590.2" y2="128.9"/>
		<line class="st0" x1="590.2" y1="126.1" x2="590.2" y2="123.3"/>
	</g>
	<g>
		<line class="st0" x1="590.2" y1="191.3" x2="590.2" y2="188.5"/>
		<line class="st0" x1="590.2" y1="185.6" x2="590.2" y2="182.8"/>
		<line class="st0" x1="590.2" y1="180" x2="590.2" y2="177.1"/>
	</g>
	<g>
		<line class="st0" x1="590.2" y1="245.2" x2="590.2" y2="242.3"/>
		<line class="st0" x1="590.2" y1="239.5" x2="590.2" y2="236.7"/>
		<line class="st0" x1="590.2" y1="233.8" x2="590.2" y2="231"/>
	</g>
	<line class="st0" x1="816.9" y1="83.6" x2="816.9" y2="80.8"/>
	<line class="st0" x1="816.9" y1="77.9" x2="816.9" y2="75.1"/>
	<line class="st0" x1="816.9" y1="72.3" x2="816.9" y2="69.4"/>
	<line class="st0" x1="816.9" y1="137.5" x2="816.9" y2="134.6"/>
	<line class="st0" x1="816.9" y1="131.8" x2="816.9" y2="128.9"/>
	<line class="st0" x1="816.9" y1="126.1" x2="816.9" y2="123.3"/>
	<line class="st0" x1="816.9" y1="191.3" x2="816.9" y2="188.5"/>
	<line class="st0" x1="816.9" y1="185.6" x2="816.9" y2="182.8"/>
	<line class="st0" x1="816.9" y1="180" x2="816.9" y2="177.1"/>
	<line class="st0" x1="816.9" y1="245.2" x2="816.9" y2="242.3"/>
	<line class="st0" x1="816.9" y1="239.5" x2="816.9" y2="236.7"/>
	<line class="st0" x1="816.9" y1="233.8" x2="816.9" y2="231"/>
</g>
<g>
	<path class="st1" d="M121,224.5v-102l-17.2,12.7v-18.3l17.2-12.7h17.2v120.3C138.2,224.5,121,224.5,121,224.5z"/>
	<path class="st1" d="M159.1,129.1c0-4.1,0.7-7.7,2.1-10.8c1.4-3.2,3.3-5.8,5.7-8.1c2.4-2.2,5.1-4,8.2-5.2s6.3-1.8,9.7-1.8
		s6.6,0.6,9.7,1.8c3.1,1.2,5.8,2.9,8.2,5.2c2.4,2.3,4.2,5,5.7,8.1s2.1,6.8,2.1,10.8v70.6c0,4.1-0.7,7.7-2.1,10.8s-3.3,5.9-5.7,8.1
		c-2.4,2.2-5.1,4-8.2,5.1c-3.1,1.2-6.3,1.8-9.7,1.8s-6.6-0.6-9.7-1.8c-3.1-1.2-5.8-2.9-8.2-5.1c-2.4-2.2-4.2-5-5.7-8.1
		s-2.1-6.8-2.1-10.8V129.1z M176.4,199.7c0,2.5,0.8,4.5,2.4,6.2s3.6,2.4,6.1,2.4s4.5-0.8,6.1-2.4c1.6-1.6,2.4-3.7,2.4-6.2v-70.6
		c0-2.5-0.8-4.5-2.4-6.2c-1.6-1.6-3.6-2.4-6.1-2.4s-4.5,0.8-6.1,2.4c-1.6,1.6-2.4,3.7-2.4,6.2V199.7z"/>
</g>
<g>
	<path class="st1" d="M360.9,125.4c0-1,0.5-2.2,1.7-2.7l30.9-17c0.7-0.3,1.4-0.5,2-0.5c1.2,0,2.7,1.2,2.7,2.7c0,0,0,0.7-0.3,1.7
		l-42.9,107.1c-0.5,1.4-1.7,2.1-2.9,2.1c-2,0-3.4-1.7-3.4-2.7c0-0.3,0-1.5,0.2-1.9c9.9-25.1,25.8-64.7,39.1-98.6l-22.4,12.9
		c-0.3,0.2-1,0.3-1.5,0.3C361.8,128.8,360.9,126.9,360.9,125.4L360.9,125.4z"/>
	<path class="st1" d="M398.8,189.2c0-34.2,26.1-83.7,49.9-83.7c15,0,18.5,18.6,18.5,29.6c0,34.7-26.1,83.7-49.7,83.7
		C402.3,218.7,398.8,200.3,398.8,189.2L398.8,189.2z M405.5,189.3c0,8.4,2,22.7,12,22.7c19.6,0,43-45.8,43-77.2
		c0-8.2-2-22.7-11.8-22.7C429.2,112.1,405.5,157.7,405.5,189.3L405.5,189.3z"/>
</g>
<path class="st1" d="M453.4,376.4c20,0,33.2,18.8,27,53.1c-5,27.6-22.7,49.7-45.5,49.7s-32.4-21.3-27.2-49.8
	C413.8,395.3,432.6,376.4,453.4,376.4 M440.4,448.8c2.8,0,6.9-7.3,9.8-22.9c2.7-15.2,1.9-23.1-1.5-23.1s-6.7,7.3-9.6,23.1
	C436,442.9,437,448.8,440.4,448.8 M398.4,378.2l-12.5,69.3h10.5l-5.3,29.4h-49.2l5.3-29.4h10.5l6.5-36.1h-10.5l4.1-22.9
	c10.9-0.8,15.3-4,19.6-10.2L398.4,378.2 M453.4,364.8c-19.2,0-35.8,11.6-46.5,31.2l2.8-15.8l2.5-13.6h-40.9l-3.5,5
	c-2.2,3.1-3.2,4.7-11,5.3l-8.9,0.7l-1.6,8.8l-4.1,22.9l-2.5,13.6h10.5l-2.3,13h-10.5l-1.7,9.5l-5.3,29.4l-2.5,13.6h72.8l1.7-9.5
	l0.8-4.2c0.7,1,1.4,2,2.2,2.9c7.2,8.6,17.4,13.2,29.5,13.2c14.1,0,27.7-6.5,38.1-18.4c9.3-10.5,15.9-25,18.8-40.8
	c2.9-15.9,3.6-38.1-9.3-53.5C475.3,369.5,465,364.8,453.4,364.8L453.4,364.8L453.4,364.8z"/>
<g>
	<path class="st1" d="M90.9,478.6V470h8.8c3.2,0,5.6-0.5,7.2-1.6c1.6-1.1,2.4-3.7,2.4-7.8v-58.9c0-5.6-0.8-9-2.2-10.4s-5.7-2-12.7-2
		V381c13.6-0.6,24.2-3.7,32-9.4h8.2v88.5c0,3.6,0.6,6.1,1.7,7.6c1.2,1.5,3.7,2.2,7.6,2.2h8.7v8.6L90.9,478.6L90.9,478.6z"/>
	<path class="st1" d="M147.6,425.4c0-17.5,4-30.7,12-39.8c8-9.1,18.4-13.6,31.1-13.6s22.7,4.5,30.8,13.5c8.1,9,12.2,22,12.2,39.2
		c0,19.4-3.9,33.6-11.8,42.6s-18.2,13.6-31.1,13.6c-9.1,0-17.1-2.4-23.9-7.3c-6.9-4.9-11.8-11.1-14.8-18.7
		C149.1,447.2,147.6,437.4,147.6,425.4L147.6,425.4z M178.1,425.5c0,16.8,0.8,28.7,2.4,35.7c1.6,7,5.2,10.5,10.7,10.5
		c4.7,0,7.9-2.8,9.6-8.4s2.5-18,2.5-37c0-18.1-0.9-30.2-2.7-36.3c-1.8-6.1-5.2-9.2-10.2-9.2c-4.5,0-7.6,2.9-9.5,8.7
		S178.1,407.3,178.1,425.5L178.1,425.5z"/>
</g>
<g>
	<path class="st1" d="M626.2,1090.6v-71.2h-27.6v-16.8c3.9,0.1,7.6-0.2,11.2-0.9c3.6-0.7,6.8-1.9,9.7-3.6s5.3-4,7.3-6.8
		s3.3-6.3,3.9-10.5h17.7v109.9H626.2L626.2,1090.6z"/>
	<path class="st1" d="M665.1,1008.3c2.1-7.3,5-13.1,8.7-17.5c3.7-4.4,7.9-7.5,12.8-9.4c4.9-1.9,10-2.8,15.5-2.8s10.8,0.9,15.6,2.8
		c4.9,1.9,9.2,5,12.9,9.4c3.7,4.4,6.6,10.2,8.8,17.5c2.1,7.3,3.2,16.2,3.2,26.9s-1.1,20.2-3.2,27.5c-2.2,7.4-5.1,13.3-8.8,17.7
		c-3.7,4.4-8,7.5-12.9,9.4c-4.9,1.9-10.1,2.8-15.6,2.8s-10.6-0.9-15.5-2.8s-9.1-5-12.8-9.4c-3.7-4.4-6.6-10.3-8.7-17.7
		c-2.2-7.4-3.2-16.6-3.2-27.5S662.9,1015.5,665.1,1008.3z M684.5,1046.6c0.2,4.4,0.9,8.7,2,12.9c1.1,4.1,2.8,7.7,5.3,10.6
		c2.4,2.9,5.9,4.4,10.4,4.4s8.1-1.5,10.6-4.4s4.2-6.5,5.3-10.6c1.1-4.1,1.8-8.4,2-12.9s0.3-8.2,0.3-11.4c0-1.9,0-4.2-0.1-6.8
		c0-2.7-0.3-5.4-0.6-8.2c-0.4-2.8-0.9-5.6-1.6-8.4c-0.7-2.8-1.7-5.3-3.1-7.4c-1.4-2.2-3.1-4-5.2-5.3c-2.1-1.4-4.7-2-7.7-2
		s-5.6,0.7-7.6,2s-3.7,3.1-5,5.3c-1.3,2.2-2.3,4.7-3.1,7.4c-0.7,2.8-1.3,5.6-1.6,8.4c-0.3,2.8-0.5,5.6-0.5,8.2s-0.1,4.9-0.1,6.8
		C684.1,1038.3,684.2,1042.1,684.5,1046.6L684.5,1046.6z"/>
</g>
<path class="st0" d="M272.4,724.1v-70c0-6.3-5.1-11.3-11.3-11.3H45.6c-6.3,0-11.3,5.1-11.3,11.3v70H40v19.6h-5.7v5.7H40v15.3h226.8
	v-15.3h5.7v-5.7h-5.7v-19.6H272.4L272.4,724.1z"/>
<path class="st0" d="M272.4,805.1v70c0,6.3-5.1,11.3-11.3,11.3H45.6c-6.3,0-11.3-5.1-11.3-11.3v-70H40v-19.6h-5.7v-5.7H40v-15.3
	h226.8v15.3h5.7v5.7h-5.7v19.6H272.4L272.4,805.1z"/>
<path class="st0" d="M272.4,995.3v-70c0-6.3-5.1-11.3-11.3-11.3H45.6c-6.3,0-11.3,5.1-11.3,11.3v70H40v19.6h-5.7v5.7H40v15.3h226.8
	v-15.3h5.7v-5.7h-5.7v-19.6H272.4L272.4,995.3z"/>
<path class="st0" d="M272.4,1076.4v70c0,6.3-5.1,11.3-11.3,11.3H45.6c-6.3,0-11.3-5.1-11.3-11.3v-70H40v-19.6h-5.7v-5.7H40v-15.3
	h226.8v15.3h5.7v5.7h-5.7v19.6H272.4L272.4,1076.4z"/>
<path class="st0" d="M530.6,724.1v-70c0-6.3-5.1-11.3-11.3-11.3H303.8c-6.3,0-11.3,5.1-11.3,11.3v70h5.7v19.6h-5.7v5.7h5.7v15.3H525
	v-15.3h5.7v-5.7H525v-19.6H530.6L530.6,724.1z"/>
<path class="st0" d="M530.6,805.1v70c0,6.3-5.1,11.3-11.3,11.3H303.8c-6.3,0-11.3-5.1-11.3-11.3v-70h5.7v-19.6h-5.7v-5.7h5.7v-15.3
	H525v15.3h5.7v5.7H525v19.6H530.6L530.6,805.1z"/>
<path class="st0" d="M530.6,995.3v-70c0-6.3-5.1-11.3-11.3-11.3H303.8c-6.3,0-11.3,5.1-11.3,11.3v70h5.7v19.6h-5.7v5.7h5.7v15.3H525
	v-15.3h5.7v-5.7H525v-19.6H530.6L530.6,995.3z"/>
<path class="st0" d="M530.6,1076.4v70c0,6.3-5.1,11.3-11.3,11.3H303.8c-6.3,0-11.3-5.1-11.3-11.3v-70h5.7v-19.6h-5.7v-5.7h5.7v-15.3
	H525v15.3h5.7v5.7H525v19.6H530.6L530.6,1076.4z"/>
<path class="st0" d="M788.9,724.1v-70c0-6.3-5.1-11.3-11.3-11.3H562.1c-6.3,0-11.3,5.1-11.3,11.3v70h5.7v19.6h-5.7v5.7h5.7v15.3
	h226.8v-15.3h5.7v-5.7h-5.7v-19.6H788.9L788.9,724.1z"/>
<path class="st0" d="M788.9,805.1v70c0,6.3-5.1,11.3-11.3,11.3H562.1c-6.3,0-11.3-5.1-11.3-11.3v-70h5.7v-19.6h-5.7v-5.7h5.7v-15.3
	h226.8v15.3h5.7v5.7h-5.7v19.6H788.9L788.9,805.1z"/>
<path class="st0" d="M788.9,995.3v-70c0-6.3-5.1-11.3-11.3-11.3H562.1c-6.3,0-11.3,5.1-11.3,11.3v70h5.7v19.6h-5.7v5.7h5.7v15.3
	h226.8v-15.3h5.7v-5.7h-5.7v-19.6H788.9L788.9,995.3z"/>
<path class="st0" d="M788.9,1076.4v70c0,6.3-5.1,11.3-11.3,11.3H562.1c-6.3,0-11.3-5.1-11.3-11.3v-70h5.7v-19.6h-5.7v-5.7h5.7v-15.3
	h226.8v15.3h5.7v5.7h-5.7v19.6H788.9L788.9,1076.4z"/>
<g>
	<path class="st1" d="M91.3,752.6l-15.4-18l25-26.5h27.4v114.2h-37L91.3,752.6L91.3,752.6z M111.7,808.6v-86.8h-4.8l-13.2,14
		l2.6,2.9l11-11.1v81L111.7,808.6L111.7,808.6z"/>
	<path class="st1" d="M229.9,765.3c0,19.4-4.1,34.2-12.2,44.5c-8.1,10.3-19.4,15.4-33.9,15.4s-25.8-5.1-33.9-15.4
		c-8.1-10.3-12.2-25.1-12.2-44.5s4.1-34.2,12.2-44.5s19.4-15.4,33.9-15.4s25.8,5.1,33.9,15.4C225.8,731.1,229.9,745.9,229.9,765.3
		L229.9,765.3z M153.7,765.3c0,5.1,0.5,10.4,1.5,15.7c1,5.3,2.6,10.1,4.9,14.5c2.3,4.3,5.4,7.9,9.2,10.6c3.9,2.7,8.7,4.1,14.6,4.1
		s10.7-1.4,14.6-4.1c3.9-2.7,7-6.3,9.2-10.6c2.3-4.3,3.9-9.2,4.9-14.5s1.5-10.5,1.5-15.7s-0.5-10.4-1.5-15.7s-2.6-10.1-4.9-14.5
		c-2.3-4.3-5.4-7.9-9.2-10.6s-8.7-4.1-14.6-4.1s-10.7,1.4-14.6,4.1c-3.9,2.7-7,6.3-9.2,10.6c-2.3,4.3-3.9,9.2-4.9,14.5
		S153.7,760.2,153.7,765.3z M209.5,765.3c0,3.9-0.3,8.2-1,12.9c-0.7,4.7-2,9.2-3.9,13.3c-1.9,4.1-4.5,7.6-7.9,10.4
		c-3.4,2.8-7.7,4.2-12.9,4.2s-9.7-1.4-13-4.2c-3.3-2.8-5.9-6.2-7.8-10.4c-1.9-4.1-3.2-8.5-3.9-13.3c-0.7-4.7-1-9-1-12.9
		s0.3-8.2,1-12.9c0.7-4.7,2-9.2,3.9-13.3c1.9-4.1,4.5-7.6,7.8-10.4s7.6-4.2,13-4.2s9.6,1.4,12.9,4.2c3.4,2.8,6,6.2,7.9,10.4
		c1.9,4.1,3.2,8.5,3.9,13.3C209.1,757.1,209.5,761.4,209.5,765.3L209.5,765.3z M194.8,765.3c0-17.9-3.6-26.9-11-26.9s-11,9-11,26.9
		s3.6,26.9,11,26.9S194.8,783.2,194.8,765.3z"/>
</g>
<g>
	<path class="st1" d="M405.8,812.2H340V783h14v-35.9h-14v-22.8c14.4-0.8,19.5-3.9,23.8-10.2h28V783h14V812.2z"/>
	<path class="st1" d="M445.5,814.5c-30.3,0-48.3-21.2-48.3-49.5c0-33.8,20.5-52.6,48.3-52.6c27.8,0,48.9,18.7,48.9,52.8
		C494.4,792.5,476,814.5,445.5,814.5L445.5,814.5z M445.5,738.6c-4.4,0-7.2,7.2-7.2,23c0,16.9,2.8,22.8,7.2,22.8
		c3.8,0,7.5-7.2,7.5-22.8S450,738.6,445.5,738.6z"/>
</g>
<g>
	<path class="st1" d="M653.5,815.3l-1.3,5.6h-54.7l1.5-5.6h1.4c4.2,0,7.6-0.7,10-2.2c2.4-1.5,4.5-5.3,6.2-11.5l17.4-58.8
		c0.7-2.5,1.1-4.6,1.1-6.5c0-4.4-2.2-6.6-6.7-6.6c-3.4,0-6.7,0.6-10,1.7l-1.8-6.5l44.1-11.6h5.4l-24.7,88.6
		c-0.8,2.7-1.2,4.8-1.2,6.5c0,2.4,0.8,4.1,2.5,5.2c1.7,1.1,4.7,1.6,9,1.6L653.5,815.3L653.5,815.3z"/>
	<path class="st1" d="M692.2,822.4c-7.3,0-13.8-2.8-19.2-8.4s-8.2-14.2-8.2-25.6c0-9.9,2.1-21.3,6.2-34.2s10-22.8,17.5-29.7
		s16.3-10.3,26.4-10.3c7.9,0,14.5,3,19.6,9s7.7,14.4,7.7,25.1c0,9.9-2.1,21.3-6.3,34.3c-4.2,13-10,22.9-17.5,29.7
		S702.3,822.4,692.2,822.4L692.2,822.4z M706.1,795.1l14.1-53.1c1.1-4.4,1.7-8.2,1.7-11.3c0-6.8-2.3-10.2-6.9-10.2
		c-5.7,0-10.3,6.7-13.9,20.1L687,794.4c-1.2,4.4-1.8,8.2-1.8,11.3c0,6.9,2.3,10.4,7,10.4C697.9,816.2,702.5,809.1,706.1,795.1
		L706.1,795.1z"/>
</g>
<g>
	<path class="st1" d="M349.5,1081.8h22.8V1000c0-2.6,0.1-5,0.1-5h-0.3c0,0-1,1.9-5.3,6.2l-11.9,11.9l-4.3-4.2l21.7-21.8h6.2v94.6
		h22.2v5.7h-51.2L349.5,1081.8L349.5,1081.8z"/>
	<path class="st1" d="M410.5,1037.3c0-29,8.3-51.9,33.8-51.9c25.5,0,33.8,22.9,33.8,51.9s-8.3,51.9-33.8,51.9
		C418.8,1089.2,410.5,1066.4,410.5,1037.3z M471.7,1037.3c0-25.8-6-46-27.4-46s-27.4,20.2-27.4,46s6,46,27.4,46
		C465.7,1083.4,471.7,1063.3,471.7,1037.3L471.7,1037.3z"/>
</g>
<g>
	<polygon class="st1" points="102.7,1000.8 78.5,1019.9 88.4,1029.9 99.9,1020.8 	"/>
	<polygon class="st1" points="128.4,975.2 113.2,1083.2 91.3,1083.2 101.2,1093.2 123.2,1093.2 138.3,985.2 	"/>
</g>
<g>
	<path class="st1" d="M205.3,981.2l-0.7-0.7v0.1C204.9,980.8,205.1,981,205.3,981.2L205.3,981.2z"/>
	<path class="st1" d="M226.1,1019.7c-0.3-6.6-1.5-12.6-3.7-18c-2-4.8-4.9-8.7-8.8-12l-8.2-8.4c3,2.9,5.4,6.4,7,10.4
		c2.2,5.4,3.5,11.4,3.7,18c0.2,6.6-0.1,13.1-1,19.5s-2.4,12.9-4.5,19.5c-2.1,6.6-5,12.6-8.8,18c-3.8,5.4-8.5,9.8-14.1,13.2
		c-5.6,3.4-12.5,5.1-20.5,5.1s-14.4-1.7-19.1-5.1c-1.8-1.3-3.3-2.7-4.8-4.2l0,0l12.5,12.5l0-0.1c0.7,0.6,1.5,1.2,2.3,1.8
		c4.7,3.4,11,5.1,19.1,5.1s14.9-1.7,20.5-5.1c5.6-3.4,10.4-7.8,14.1-13.2c3.8-5.4,6.7-11.4,8.8-18c2.1-6.6,3.6-13.1,4.5-19.5
		C226.1,1032.8,226.4,1026.3,226.1,1019.7L226.1,1019.7z"/>
	<path class="st1" d="M161,1060.2c1.6,2.1,3.8,3.2,6.9,3.7c-0.3-0.9-0.5-1.9-0.7-3c-0.6-3.7-0.8-7.5-0.5-11.4
		c0.3-4,0.7-7.4,1.1-10.2s1-6.3,1.8-10.2c0.8-4,2-7.8,3.7-11.4c1.6-3.7,3.8-6.8,6.4-9.3c2.6-2.5,6.1-3.8,10.2-3.8
		c0.8,0,1.6,0.1,2.3,0.2c-0.7-2.4-1.8-4.5-3.2-6.3c-2-2.5-5-3.8-9.1-3.8s-7.6,1.3-10.2,3.8c-2.6,2.5-4.8,5.7-6.4,9.3
		s-2.9,7.5-3.7,11.4c-0.8,4-1.4,7.4-1.8,10.2c-0.4,2.8-0.8,6.3-1.1,10.2s-0.1,7.8,0.5,11.4C157.8,1054.6,159.1,1057.7,161,1060.2
		L161,1060.2z"/>
</g>
<path class="st0" d="M1306.6,334.1c24.3,0,43.9,19.7,43.9,43.9s-19.7,43.9-43.9,43.9s-43.9-19.7-43.9-43.9
	S1282.3,334.1,1306.6,334.1z M1306.6,368.2c5.5,0,9.9,4.4,9.9,9.9s-4.4,9.9-9.9,9.9s-9.9-4.4-9.9-9.9S1301.1,368.2,1306.6,368.2z
	 M1276.1,371.4c3.8,0,6.8,3,6.8,6.8s-3.1,6.8-6.8,6.8s-6.8-3-6.8-6.8S1272.3,371.4,1276.1,371.4z M1337,371.3c3.8,0,6.8,3,6.8,6.8
	s-3.1,6.8-6.8,6.8s-6.8-3-6.8-6.8S1333.3,371.3,1337,371.3z M1278,390.6c3-2.2,7.3-1.5,9.5,1.5s1.5,7.3-1.5,9.5s-7.3,1.5-9.5-1.5
	S1274.9,392.8,1278,390.6z M1327.2,354.7c3-2.2,7.3-1.5,9.5,1.5s1.5,7.3-1.5,9.5s-7.3,1.5-9.5-1.5S1324.1,356.9,1327.2,354.7z
	 M1290.7,405c1.2-3.6,5-5.5,8.6-4.4s5.5,5,4.4,8.6s-5,5.5-8.6,4.4S1289.6,408.6,1290.7,405z M1309.4,347c1.2-3.6,5-5.5,8.6-4.4
	s5.5,5,4.4,8.6s-5,5.5-8.6,4.4S1308.3,350.6,1309.4,347z M1309.6,409.2c-1.2-3.6,0.8-7.4,4.4-8.6c3.6-1.2,7.4,0.8,8.6,4.4
	c1.2,3.6-0.8,7.4-4.4,8.6C1314.6,414.7,1310.7,412.8,1309.6,409.2z M1290.6,351.3c-1.2-3.6,0.8-7.4,4.4-8.6c3.6-1.2,7.4,0.8,8.6,4.4
	c1.2,3.6-0.8,7.4-4.4,8.6C1295.6,356.8,1291.8,354.9,1290.6,351.3z M1327.3,401.5c-3-2.2-3.7-6.5-1.5-9.5c2.2-3,6.5-3.7,9.5-1.5
	c3,2.2,3.7,6.5,1.5,9.5C1334.5,403,1330.3,403.7,1327.3,401.5z M1277.9,365.8c-3-2.2-3.7-6.5-1.5-9.5c2.2-3,6.5-3.7,9.5-1.5
	c3,2.2,3.7,6.5,1.5,9.5S1280.9,368,1277.9,365.8z"/>
<path class="st0" d="M1415.6,424c24.3,0,43.9,19.7,43.9,43.9s-19.7,43.9-43.9,43.9s-43.9-19.7-43.9-43.9S1391.3,424,1415.6,424z
	 M1415.6,458c5.5,0,9.9,4.4,9.9,9.9s-4.4,9.9-9.9,9.9s-9.9-4.4-9.9-9.9S1410.1,458,1415.6,458z M1385.1,461.3c3.8,0,6.8,3,6.8,6.8
	s-3.1,6.8-6.8,6.8s-6.8-3-6.8-6.8S1381.3,461.3,1385.1,461.3z M1446,461.1c3.8,0,6.8,3,6.8,6.8s-3.1,6.8-6.8,6.8s-6.8-3-6.8-6.8
	S1442.3,461.1,1446,461.1z M1386.9,480.5c3-2.2,7.3-1.5,9.5,1.5s1.5,7.3-1.5,9.5s-7.3,1.5-9.5-1.5S1383.9,482.7,1386.9,480.5z
	 M1436.2,444.5c3-2.2,7.3-1.5,9.5,1.5s1.5,7.3-1.5,9.5s-7.3,1.5-9.5-1.5S1433.1,446.7,1436.2,444.5z M1399.7,494.9
	c1.2-3.6,5-5.5,8.6-4.4s5.5,5,4.4,8.6s-5,5.5-8.6,4.4S1398.6,498.5,1399.7,494.9z M1418.4,436.9c1.2-3.6,5-5.5,8.6-4.4
	s5.5,5,4.4,8.6s-5,5.5-8.6,4.4S1417.3,440.5,1418.4,436.9z M1418.6,499.1c-1.2-3.6,0.8-7.4,4.4-8.6c3.6-1.2,7.4,0.8,8.6,4.4
	c1.2,3.6-0.8,7.4-4.4,8.6C1423.6,504.6,1419.7,502.6,1418.6,499.1z M1399.6,441.1c-1.2-3.6,0.8-7.4,4.4-8.6c3.6-1.2,7.4,0.8,8.6,4.4
	c1.2,3.6-0.8,7.4-4.4,8.6C1404.6,446.7,1400.8,444.7,1399.6,441.1z M1436.2,491.4c-3-2.2-3.7-6.5-1.5-9.5c2.2-3,6.5-3.7,9.5-1.5
	c3,2.2,3.7,6.5,1.5,9.5C1443.5,492.9,1439.3,493.6,1436.2,491.4z M1386.9,455.6c-3-2.2-3.7-6.5-1.5-9.5c2.2-3,6.5-3.7,9.5-1.5
	c3,2.2,3.7,6.5,1.5,9.5S1389.9,457.8,1386.9,455.6z"/>
<g>
	<line class="st0" x1="1054" y1="112.7" x2="1045.3" y2="112.7"/>
	<line class="st0" x1="1045.3" y1="126.9" x2="1054" y2="126.9"/>
	<g>
		<line class="st0" x1="1049.6" y1="126.9" x2="1049.6" y2="112.7"/>
		<g>
			<line class="st0" x1="1053.9" y1="121.3" x2="1053.9" y2="118.4"/>
			<line class="st0" x1="1053.9" y1="124.9" x2="1053.9" y2="122.4"/>
			<line class="st0" x1="1053.9" y1="117.3" x2="1053.9" y2="114.7"/>
		</g>
		<g>
			<line class="st0" x1="1045.4" y1="121.3" x2="1045.4" y2="118.4"/>
			<line class="st0" x1="1045.4" y1="124.9" x2="1045.4" y2="122.4"/>
			<line class="st0" x1="1045.4" y1="117.3" x2="1045.4" y2="114.7"/>
		</g>
	</g>
	<polygon class="st0" points="1042.5,46.1 1042.5,75.1 1033.6,47.6 1020.1,51.9 1029,79.5 1012,56 1000.6,64.4 1017.6,87.8 
		994.1,70.8 985.8,82.2 1009.2,99.3 981.7,90.3 977.3,103.8 1004.9,112.7 975.9,112.7 975.9,126.9 1004.9,126.9 977.3,135.9 
		981.7,149.4 1009.2,140.4 985.8,157.4 994.1,168.9 1017.6,151.9 1000.6,175.3 1012,183.6 1029,160.2 1020.1,187.7 1033.6,192.1 
		1042.5,164.6 1042.5,193.5 1056.7,193.5 1056.7,164.6 1065.6,192.1 1079.1,187.7 1070.2,160.2 1087.2,183.6 1098.7,175.3 
		1081.6,151.9 1105.1,168.9 1113.4,157.4 1090,140.4 1117.5,149.4 1121.9,135.9 1094.4,126.9 1123.3,126.9 1123.3,112.7 
		1094.4,112.7 1121.9,103.8 1117.5,90.3 1090,99.3 1113.4,82.2 1105.1,70.8 1081.6,87.8 1098.7,64.4 1087.2,56 1070.2,79.5 
		1079.1,51.9 1065.6,47.6 1056.7,75.1 1056.7,46.1 	"/>
	<g>
		<g>
			<line class="st0" x1="1054.4" y1="74.7" x2="1052.7" y2="74.6"/>
			<line class="st0" x1="1046.5" y1="165.1" x2="1044.8" y2="164.9"/>
		</g>
		<g>
			<line class="st0" x1="1058.3" y1="75.3" x2="1056.6" y2="75"/>
			<line class="st0" x1="1042.6" y1="164.6" x2="1040.9" y2="164.4"/>
		</g>
		<g>
			<line class="st0" x1="1062.2" y1="76.2" x2="1060.5" y2="75.8"/>
			<line class="st0" x1="1038.7" y1="163.9" x2="1037" y2="163.4"/>
		</g>
		<g>
			<line class="st0" x1="1065.9" y1="77.5" x2="1064.3" y2="76.9"/>
			<line class="st0" x1="1034.9" y1="162.7" x2="1033.3" y2="162.2"/>
		</g>
		<g>
			<line class="st0" x1="1069.5" y1="79.1" x2="1068" y2="78.4"/>
			<line class="st0" x1="1031.2" y1="161.3" x2="1029.7" y2="160.6"/>
		</g>
		<g>
			<line class="st0" x1="1073" y1="81" x2="1071.5" y2="80.1"/>
			<line class="st0" x1="1027.7" y1="159.5" x2="1026.2" y2="158.7"/>
		</g>
		<g>
			<line class="st0" x1="1076.3" y1="83.2" x2="1074.9" y2="82.2"/>
			<line class="st0" x1="1024.3" y1="157.5" x2="1022.9" y2="156.5"/>
		</g>
		<g>
			<line class="st0" x1="1079.4" y1="85.6" x2="1078.1" y2="84.5"/>
			<line class="st0" x1="1021.1" y1="155.1" x2="1019.8" y2="154"/>
		</g>
		<g>
			<line class="st0" x1="1082.3" y1="88.4" x2="1081.1" y2="87.2"/>
			<line class="st0" x1="1018.1" y1="152.5" x2="1016.9" y2="151.3"/>
		</g>
		<g>
			<line class="st0" x1="1084.9" y1="91.3" x2="1083.8" y2="90"/>
			<line class="st0" x1="1015.4" y1="149.6" x2="1014.3" y2="148.3"/>
		</g>
		<g>
			<line class="st0" x1="1087.2" y1="94.5" x2="1086.3" y2="93.1"/>
			<line class="st0" x1="1012.9" y1="146.5" x2="1012" y2="145.2"/>
		</g>
		<g>
			<line class="st0" x1="1089.3" y1="97.9" x2="1088.5" y2="96.4"/>
			<line class="st0" x1="1010.8" y1="143.2" x2="1009.9" y2="141.8"/>
		</g>
		<g>
			<line class="st0" x1="1091.1" y1="101.4" x2="1090.4" y2="99.9"/>
			<line class="st0" x1="1008.9" y1="139.8" x2="1008.1" y2="138.2"/>
		</g>
		<g>
			<line class="st0" x1="1092.5" y1="105.1" x2="1091.9" y2="103.5"/>
			<line class="st0" x1="1007.3" y1="136.1" x2="1006.7" y2="134.5"/>
		</g>
		<g>
			<line class="st0" x1="1093.6" y1="108.9" x2="1093.2" y2="107.3"/>
			<line class="st0" x1="1006" y1="132.4" x2="1005.6" y2="130.8"/>
		</g>
		<g>
			<line class="st0" x1="1094.4" y1="112.8" x2="1094.1" y2="111.1"/>
			<line class="st0" x1="1005.1" y1="128.5" x2="1004.8" y2="126.9"/>
		</g>
		<g>
			<line class="st0" x1="1094.9" y1="116.7" x2="1094.7" y2="115"/>
			<line class="st0" x1="1004.5" y1="124.6" x2="1004.4" y2="122.9"/>
		</g>
		<g>
			<line class="st0" x1="1095" y1="120.7" x2="1095" y2="119"/>
			<line class="st0" x1="1004.3" y1="120.7" x2="1004.3" y2="119"/>
		</g>
		<g>
			<line class="st0" x1="1094.7" y1="124.6" x2="1094.9" y2="122.9"/>
			<line class="st0" x1="1004.4" y1="116.7" x2="1004.5" y2="115"/>
		</g>
		<g>
			<line class="st0" x1="1094.1" y1="128.5" x2="1094.4" y2="126.9"/>
			<line class="st0" x1="1004.8" y1="112.8" x2="1005.1" y2="111.1"/>
		</g>
		<g>
			<line class="st0" x1="1093.2" y1="132.4" x2="1093.6" y2="130.8"/>
			<line class="st0" x1="1005.6" y1="108.9" x2="1006" y2="107.3"/>
		</g>
		<g>
			<line class="st0" x1="1091.9" y1="136.1" x2="1092.5" y2="134.5"/>
			<line class="st0" x1="1006.7" y1="105.1" x2="1007.3" y2="103.5"/>
		</g>
		<g>
			<line class="st0" x1="1090.4" y1="139.8" x2="1091.1" y2="138.2"/>
			<line class="st0" x1="1008.1" y1="101.4" x2="1008.9" y2="99.9"/>
		</g>
		<g>
			<line class="st0" x1="1088.5" y1="143.2" x2="1089.3" y2="141.8"/>
			<line class="st0" x1="1009.9" y1="97.9" x2="1010.8" y2="96.4"/>
		</g>
		<g>
			<line class="st0" x1="1086.3" y1="146.5" x2="1087.2" y2="145.2"/>
			<line class="st0" x1="1012" y1="94.5" x2="1012.9" y2="93.1"/>
		</g>
		<g>
			<line class="st0" x1="1083.8" y1="149.6" x2="1084.9" y2="148.3"/>
			<line class="st0" x1="1014.3" y1="91.3" x2="1015.4" y2="90"/>
		</g>
		<g>
			<line class="st0" x1="1081.1" y1="152.5" x2="1082.3" y2="151.3"/>
			<line class="st0" x1="1016.9" y1="88.4" x2="1018.1" y2="87.2"/>
		</g>
		<g>
			<line class="st0" x1="1078.1" y1="155.1" x2="1079.4" y2="154"/>
			<line class="st0" x1="1019.8" y1="85.6" x2="1021.1" y2="84.5"/>
		</g>
		<g>
			<line class="st0" x1="1074.9" y1="157.5" x2="1076.3" y2="156.5"/>
			<line class="st0" x1="1022.9" y1="83.2" x2="1024.3" y2="82.2"/>
		</g>
		<g>
			<line class="st0" x1="1071.5" y1="159.5" x2="1073" y2="158.7"/>
			<line class="st0" x1="1026.2" y1="81" x2="1027.7" y2="80.1"/>
		</g>
		<g>
			<line class="st0" x1="1068" y1="161.3" x2="1069.5" y2="160.6"/>
			<line class="st0" x1="1029.7" y1="79.1" x2="1031.2" y2="78.4"/>
		</g>
		<g>
			<line class="st0" x1="1064.3" y1="162.7" x2="1065.9" y2="162.2"/>
			<line class="st0" x1="1033.3" y1="77.5" x2="1034.9" y2="76.9"/>
		</g>
		<g>
			<line class="st0" x1="1060.5" y1="163.9" x2="1062.2" y2="163.4"/>
			<line class="st0" x1="1037" y1="76.2" x2="1038.7" y2="75.8"/>
		</g>
		<g>
			<line class="st0" x1="1056.6" y1="164.6" x2="1058.3" y2="164.4"/>
			<line class="st0" x1="1040.9" y1="75.3" x2="1042.6" y2="75"/>
		</g>
		<g>
			<line class="st0" x1="1052.7" y1="165.1" x2="1054.4" y2="164.9"/>
			<line class="st0" x1="1044.8" y1="74.7" x2="1046.5" y2="74.6"/>
		</g>
		<g>
			<line class="st0" x1="1048.8" y1="165.2" x2="1050.5" y2="165.2"/>
			<line class="st0" x1="1048.8" y1="74.5" x2="1050.5" y2="74.5"/>
		</g>
	</g>
</g>
<g>
	<polygon class="st0" points="1665.5,43.9 1665.5,74 1656.2,45.4 1642.3,49.9 1651.5,78.5 1633.9,54.2 1622,62.8 1639.6,87.2 
		1615.3,69.5 1606.7,81.4 1631,99.1 1602.4,89.8 1597.8,103.8 1626.4,113.1 1596.4,113.1 1596.4,127.8 1626.4,127.8 1597.8,137.1 
		1602.4,151.1 1631,141.8 1606.7,159.5 1615.3,171.4 1639.6,153.7 1622,178 1633.9,186.7 1651.5,162.4 1642.3,191 1656.2,195.5 
		1665.5,166.9 1665.5,197 1680.3,197 1680.3,166.9 1689.6,195.5 1703.6,191 1694.3,162.4 1711.9,186.7 1723.8,178 1706.2,153.7 
		1730.5,171.4 1739.1,159.5 1714.8,141.8 1743.4,151.1 1748,137.1 1719.4,127.8 1749.4,127.8 1749.4,113.1 1719.4,113.1 1748,103.8 
		1743.4,89.8 1714.8,99.1 1739.1,81.4 1730.5,69.5 1706.2,87.2 1723.8,62.8 1711.9,54.2 1694.3,78.5 1703.6,49.9 1689.6,45.4 
		1680.3,74 1680.3,43.9 	"/>
	<g>
		<g>
			<line class="st0" x1="1677.9" y1="73.6" x2="1676.1" y2="73.4"/>
			<line class="st0" x1="1669.7" y1="167.4" x2="1667.9" y2="167.3"/>
		</g>
		<g>
			<line class="st0" x1="1682" y1="74.2" x2="1680.2" y2="73.9"/>
			<line class="st0" x1="1665.6" y1="167" x2="1663.9" y2="166.7"/>
		</g>
		<g>
			<line class="st0" x1="1685.9" y1="75.2" x2="1684.2" y2="74.7"/>
			<line class="st0" x1="1661.6" y1="166.2" x2="1659.9" y2="165.7"/>
		</g>
		<g>
			<line class="st0" x1="1689.8" y1="76.5" x2="1688.2" y2="75.9"/>
			<line class="st0" x1="1657.6" y1="165" x2="1656" y2="164.4"/>
		</g>
		<g>
			<line class="st0" x1="1693.6" y1="78.1" x2="1692" y2="77.4"/>
			<line class="st0" x1="1653.8" y1="163.5" x2="1652.2" y2="162.7"/>
		</g>
		<g>
			<line class="st0" x1="1697.2" y1="80.1" x2="1695.7" y2="79.2"/>
			<line class="st0" x1="1650.1" y1="161.7" x2="1648.6" y2="160.8"/>
		</g>
		<g>
			<line class="st0" x1="1700.6" y1="82.4" x2="1699.2" y2="81.3"/>
			<line class="st0" x1="1646.6" y1="159.5" x2="1645.2" y2="158.5"/>
		</g>
		<g>
			<line class="st0" x1="1703.9" y1="84.9" x2="1702.5" y2="83.8"/>
			<line class="st0" x1="1643.3" y1="157.1" x2="1642" y2="155.9"/>
		</g>
		<g>
			<line class="st0" x1="1706.8" y1="87.8" x2="1705.6" y2="86.5"/>
			<line class="st0" x1="1640.2" y1="154.4" x2="1639" y2="153.1"/>
		</g>
		<g>
			<line class="st0" x1="1709.5" y1="90.8" x2="1708.4" y2="89.5"/>
			<line class="st0" x1="1637.4" y1="151.4" x2="1636.3" y2="150"/>
		</g>
		<g>
			<line class="st0" x1="1712" y1="94.1" x2="1711" y2="92.7"/>
			<line class="st0" x1="1634.8" y1="148.2" x2="1633.8" y2="146.7"/>
		</g>
		<g>
			<line class="st0" x1="1714.1" y1="97.7" x2="1713.2" y2="96.1"/>
			<line class="st0" x1="1632.6" y1="144.8" x2="1631.7" y2="143.2"/>
		</g>
		<g>
			<line class="st0" x1="1716" y1="101.3" x2="1715.2" y2="99.7"/>
			<line class="st0" x1="1630.6" y1="141.1" x2="1629.8" y2="139.5"/>
		</g>
		<g>
			<line class="st0" x1="1717.5" y1="105.2" x2="1716.9" y2="103.5"/>
			<line class="st0" x1="1628.9" y1="137.4" x2="1628.3" y2="135.7"/>
		</g>
		<g>
			<line class="st0" x1="1718.6" y1="109.1" x2="1718.2" y2="107.4"/>
			<line class="st0" x1="1627.6" y1="133.5" x2="1627.2" y2="131.8"/>
		</g>
		<g>
			<line class="st0" x1="1719.4" y1="113.1" x2="1719.1" y2="111.4"/>
			<line class="st0" x1="1626.7" y1="129.5" x2="1626.4" y2="127.7"/>
		</g>
		<g>
			<line class="st0" x1="1719.9" y1="117.2" x2="1719.7" y2="115.5"/>
			<line class="st0" x1="1626.1" y1="125.4" x2="1625.9" y2="123.7"/>
		</g>
		<g>
			<line class="st0" x1="1720" y1="121.3" x2="1720" y2="119.6"/>
			<line class="st0" x1="1625.8" y1="121.3" x2="1625.8" y2="119.6"/>
		</g>
		<g>
			<line class="st0" x1="1719.7" y1="125.4" x2="1719.9" y2="123.7"/>
			<line class="st0" x1="1625.9" y1="117.2" x2="1626.1" y2="115.5"/>
		</g>
		<g>
			<line class="st0" x1="1719.1" y1="129.5" x2="1719.4" y2="127.7"/>
			<line class="st0" x1="1626.4" y1="113.1" x2="1626.7" y2="111.4"/>
		</g>
		<g>
			<line class="st0" x1="1718.2" y1="133.5" x2="1718.6" y2="131.8"/>
			<line class="st0" x1="1627.2" y1="109.1" x2="1627.6" y2="107.4"/>
		</g>
		<g>
			<line class="st0" x1="1716.9" y1="137.4" x2="1717.5" y2="135.7"/>
			<line class="st0" x1="1628.3" y1="105.2" x2="1628.9" y2="103.5"/>
		</g>
		<g>
			<line class="st0" x1="1715.2" y1="141.1" x2="1716" y2="139.5"/>
			<line class="st0" x1="1629.8" y1="101.3" x2="1630.6" y2="99.7"/>
		</g>
		<g>
			<line class="st0" x1="1713.2" y1="144.8" x2="1714.1" y2="143.2"/>
			<line class="st0" x1="1631.7" y1="97.7" x2="1632.6" y2="96.1"/>
		</g>
		<g>
			<line class="st0" x1="1711" y1="148.2" x2="1712" y2="146.7"/>
			<line class="st0" x1="1633.8" y1="94.1" x2="1634.8" y2="92.7"/>
		</g>
		<g>
			<line class="st0" x1="1708.4" y1="151.4" x2="1709.5" y2="150"/>
			<line class="st0" x1="1636.3" y1="90.8" x2="1637.4" y2="89.5"/>
		</g>
		<g>
			<line class="st0" x1="1705.6" y1="154.4" x2="1706.8" y2="153.1"/>
			<line class="st0" x1="1639" y1="87.8" x2="1640.2" y2="86.5"/>
		</g>
		<g>
			<line class="st0" x1="1702.5" y1="157.1" x2="1703.9" y2="155.9"/>
			<line class="st0" x1="1642" y1="84.9" x2="1643.3" y2="83.8"/>
		</g>
		<g>
			<line class="st0" x1="1699.2" y1="159.5" x2="1700.6" y2="158.5"/>
			<line class="st0" x1="1645.2" y1="82.4" x2="1646.6" y2="81.3"/>
		</g>
		<g>
			<line class="st0" x1="1695.7" y1="161.7" x2="1697.2" y2="160.8"/>
			<line class="st0" x1="1648.6" y1="80.1" x2="1650.1" y2="79.2"/>
		</g>
		<g>
			<line class="st0" x1="1692" y1="163.5" x2="1693.6" y2="162.7"/>
			<line class="st0" x1="1652.2" y1="78.1" x2="1653.8" y2="77.4"/>
		</g>
		<g>
			<line class="st0" x1="1688.2" y1="165" x2="1689.8" y2="164.4"/>
			<line class="st0" x1="1656" y1="76.5" x2="1657.6" y2="75.9"/>
		</g>
		<g>
			<line class="st0" x1="1684.2" y1="166.2" x2="1685.9" y2="165.7"/>
			<line class="st0" x1="1659.9" y1="75.2" x2="1661.6" y2="74.7"/>
		</g>
		<g>
			<line class="st0" x1="1680.2" y1="167" x2="1682" y2="166.7"/>
			<line class="st0" x1="1663.9" y1="74.2" x2="1665.6" y2="73.9"/>
		</g>
		<g>
			<line class="st0" x1="1676.1" y1="167.4" x2="1677.9" y2="167.3"/>
			<line class="st0" x1="1667.9" y1="73.6" x2="1669.7" y2="73.4"/>
		</g>
		<g>
			<line class="st0" x1="1672" y1="167.5" x2="1673.8" y2="167.5"/>
			<line class="st0" x1="1672" y1="73.3" x2="1673.8" y2="73.3"/>
		</g>
	</g>
</g>
<g>
	<circle class="st0" cx="1117.7" cy="414.4" r="6.4"/>
	<path class="st0" d="M974.2,227.3v374.2h782.4V227.3h-204.1v-2.8l28.3-5.8V31.5l-28.3-5.5v-2.8h-374.2V26l-28.3,5.8v187.1l28.3,5.5
		v2.8H974.2L974.2,227.3z M1487.3,524.9c0,7.8-6.3,14.2-14.2,14.2h-215.4c-7.8,0-14.2-6.3-14.2-14.2V303.8c0-7.8,6.3-14.2,14.2-14.2
		h215.4c7.8,0,14.2,6.4,14.2,14.2L1487.3,524.9L1487.3,524.9z"/>
	<circle class="st0" cx="1613.1" cy="414.4" r="6.4"/>
	<g>
		<line class="st0" x1="1552.5" y1="37.6" x2="1552.5" y2="32"/>
		<line class="st0" x1="1552.5" y1="49" x2="1552.5" y2="43.3"/>
		<line class="st0" x1="1552.5" y1="60.3" x2="1552.5" y2="54.6"/>
		<line class="st0" x1="1552.5" y1="71.6" x2="1552.5" y2="66"/>
		<line class="st0" x1="1552.5" y1="83" x2="1552.5" y2="77.3"/>
		<line class="st0" x1="1552.5" y1="94.3" x2="1552.5" y2="88.7"/>
		<line class="st0" x1="1552.5" y1="105.7" x2="1552.5" y2="100"/>
		<line class="st0" x1="1552.5" y1="117" x2="1552.5" y2="111.3"/>
		<line class="st0" x1="1552.5" y1="128.3" x2="1552.5" y2="122.7"/>
		<line class="st0" x1="1552.5" y1="139.7" x2="1552.5" y2="134"/>
		<line class="st0" x1="1552.5" y1="151" x2="1552.5" y2="145.3"/>
		<line class="st0" x1="1552.5" y1="162.4" x2="1552.5" y2="156.7"/>
		<line class="st0" x1="1552.5" y1="173.7" x2="1552.5" y2="168"/>
		<line class="st0" x1="1552.5" y1="185" x2="1552.5" y2="179.4"/>
		<line class="st0" x1="1552.5" y1="196.4" x2="1552.5" y2="190.7"/>
		<line class="st0" x1="1552.5" y1="207.7" x2="1552.5" y2="202"/>
		<line class="st0" x1="1552.5" y1="219" x2="1552.5" y2="213.4"/>
		<line class="st0" x1="1552.5" y1="241.7" x2="1552.5" y2="236.1"/>
		<line class="st0" x1="1552.5" y1="253.1" x2="1552.5" y2="247.4"/>
		<line class="st0" x1="1552.5" y1="264.4" x2="1552.5" y2="258.7"/>
		<line class="st0" x1="1552.5" y1="275.7" x2="1552.5" y2="270.1"/>
		<line class="st0" x1="1552.5" y1="287.1" x2="1552.5" y2="281.4"/>
		<line class="st0" x1="1552.5" y1="298.4" x2="1552.5" y2="292.7"/>
		<line class="st0" x1="1552.5" y1="309.8" x2="1552.5" y2="304.1"/>
		<line class="st0" x1="1552.5" y1="321.1" x2="1552.5" y2="315.4"/>
		<line class="st0" x1="1552.5" y1="332.4" x2="1552.5" y2="326.8"/>
		<line class="st0" x1="1552.5" y1="343.8" x2="1552.5" y2="338.1"/>
		<line class="st0" x1="1552.5" y1="355.1" x2="1552.5" y2="349.4"/>
		<line class="st0" x1="1552.5" y1="366.5" x2="1552.5" y2="360.8"/>
		<line class="st0" x1="1552.5" y1="377.8" x2="1552.5" y2="372.1"/>
		<line class="st0" x1="1552.5" y1="389.1" x2="1552.5" y2="383.5"/>
		<line class="st0" x1="1552.5" y1="400.5" x2="1552.5" y2="394.8"/>
		<line class="st0" x1="1552.5" y1="411.8" x2="1552.5" y2="406.1"/>
		<line class="st0" x1="1552.5" y1="423.1" x2="1552.5" y2="417.5"/>
		<line class="st0" x1="1552.5" y1="434.5" x2="1552.5" y2="428.8"/>
		<line class="st0" x1="1552.5" y1="445.8" x2="1552.5" y2="440.2"/>
		<line class="st0" x1="1552.5" y1="457.2" x2="1552.5" y2="451.5"/>
		<line class="st0" x1="1552.5" y1="468.5" x2="1552.5" y2="462.8"/>
		<line class="st0" x1="1552.5" y1="479.8" x2="1552.5" y2="474.2"/>
		<line class="st0" x1="1552.5" y1="491.2" x2="1552.5" y2="485.5"/>
		<line class="st0" x1="1552.5" y1="502.5" x2="1552.5" y2="496.8"/>
		<line class="st0" x1="1552.5" y1="513.9" x2="1552.5" y2="508.2"/>
		<line class="st0" x1="1552.5" y1="525.2" x2="1552.5" y2="519.5"/>
		<line class="st0" x1="1552.5" y1="536.5" x2="1552.5" y2="530.9"/>
		<line class="st0" x1="1552.5" y1="547.9" x2="1552.5" y2="542.2"/>
		<line class="st0" x1="1552.5" y1="559.2" x2="1552.5" y2="553.5"/>
		<line class="st0" x1="1552.5" y1="570.5" x2="1552.5" y2="564.9"/>
		<line class="st0" x1="1552.5" y1="581.9" x2="1552.5" y2="576.2"/>
		<line class="st0" x1="1552.5" y1="593.2" x2="1552.5" y2="587.6"/>
	</g>
	<g>
		<line class="st0" x1="1178.3" y1="37.6" x2="1178.3" y2="32"/>
		<line class="st0" x1="1178.3" y1="49" x2="1178.3" y2="43.3"/>
		<line class="st0" x1="1178.3" y1="60.3" x2="1178.3" y2="54.6"/>
		<line class="st0" x1="1178.3" y1="71.6" x2="1178.3" y2="66"/>
		<line class="st0" x1="1178.3" y1="83" x2="1178.3" y2="77.3"/>
		<line class="st0" x1="1178.3" y1="94.3" x2="1178.3" y2="88.7"/>
		<line class="st0" x1="1178.3" y1="105.7" x2="1178.3" y2="100"/>
		<line class="st0" x1="1178.3" y1="117" x2="1178.3" y2="111.3"/>
		<line class="st0" x1="1178.3" y1="128.3" x2="1178.3" y2="122.7"/>
		<line class="st0" x1="1178.3" y1="139.7" x2="1178.3" y2="134"/>
		<line class="st0" x1="1178.3" y1="151" x2="1178.3" y2="145.3"/>
		<line class="st0" x1="1178.3" y1="162.4" x2="1178.3" y2="156.7"/>
		<line class="st0" x1="1178.3" y1="173.7" x2="1178.3" y2="168"/>
		<line class="st0" x1="1178.3" y1="185" x2="1178.3" y2="179.4"/>
		<line class="st0" x1="1178.3" y1="196.4" x2="1178.3" y2="190.7"/>
		<line class="st0" x1="1178.3" y1="207.7" x2="1178.3" y2="202"/>
		<line class="st0" x1="1178.3" y1="219" x2="1178.3" y2="213.4"/>
		<line class="st0" x1="1178.3" y1="241.7" x2="1178.3" y2="236.1"/>
		<line class="st0" x1="1178.3" y1="253.1" x2="1178.3" y2="247.4"/>
		<line class="st0" x1="1178.3" y1="264.4" x2="1178.3" y2="258.7"/>
		<line class="st0" x1="1178.3" y1="275.7" x2="1178.3" y2="270.1"/>
		<line class="st0" x1="1178.3" y1="287.1" x2="1178.3" y2="281.4"/>
		<line class="st0" x1="1178.3" y1="298.4" x2="1178.3" y2="292.7"/>
		<line class="st0" x1="1178.3" y1="309.8" x2="1178.3" y2="304.1"/>
		<line class="st0" x1="1178.3" y1="321.1" x2="1178.3" y2="315.4"/>
		<line class="st0" x1="1178.3" y1="332.4" x2="1178.3" y2="326.8"/>
		<line class="st0" x1="1178.3" y1="343.8" x2="1178.3" y2="338.1"/>
		<line class="st0" x1="1178.3" y1="355.1" x2="1178.3" y2="349.4"/>
		<line class="st0" x1="1178.3" y1="366.5" x2="1178.3" y2="360.8"/>
		<line class="st0" x1="1178.3" y1="377.8" x2="1178.3" y2="372.1"/>
		<line class="st0" x1="1178.3" y1="389.1" x2="1178.3" y2="383.5"/>
		<line class="st0" x1="1178.3" y1="400.5" x2="1178.3" y2="394.8"/>
		<line class="st0" x1="1178.3" y1="411.8" x2="1178.3" y2="406.1"/>
		<line class="st0" x1="1178.3" y1="423.1" x2="1178.3" y2="417.5"/>
		<line class="st0" x1="1178.3" y1="434.5" x2="1178.3" y2="428.8"/>
		<line class="st0" x1="1178.3" y1="445.8" x2="1178.3" y2="440.2"/>
		<line class="st0" x1="1178.3" y1="457.2" x2="1178.3" y2="451.5"/>
		<line class="st0" x1="1178.3" y1="468.5" x2="1178.3" y2="462.8"/>
		<line class="st0" x1="1178.3" y1="479.8" x2="1178.3" y2="474.2"/>
		<line class="st0" x1="1178.3" y1="491.2" x2="1178.3" y2="485.5"/>
		<line class="st0" x1="1178.3" y1="502.5" x2="1178.3" y2="496.8"/>
		<line class="st0" x1="1178.3" y1="513.9" x2="1178.3" y2="508.2"/>
		<line class="st0" x1="1178.3" y1="525.2" x2="1178.3" y2="519.5"/>
		<line class="st0" x1="1178.3" y1="536.5" x2="1178.3" y2="530.9"/>
		<line class="st0" x1="1178.3" y1="547.9" x2="1178.3" y2="542.2"/>
		<line class="st0" x1="1178.3" y1="559.2" x2="1178.3" y2="553.5"/>
		<line class="st0" x1="1178.3" y1="570.5" x2="1178.3" y2="564.9"/>
		<line class="st0" x1="1178.3" y1="581.9" x2="1178.3" y2="576.2"/>
		<line class="st0" x1="1178.3" y1="593.2" x2="1178.3" y2="587.6"/>
	</g>
	<g>
		<line class="st0" x1="1192.5" y1="227.3" x2="1186.8" y2="227.3"/>
		<line class="st0" x1="1203.8" y1="227.3" x2="1198.1" y2="227.3"/>
		<line class="st0" x1="1215.2" y1="227.3" x2="1209.5" y2="227.3"/>
		<line class="st0" x1="1226.5" y1="227.3" x2="1220.8" y2="227.3"/>
		<line class="st0" x1="1237.8" y1="227.3" x2="1232.2" y2="227.3"/>
		<line class="st0" x1="1249.2" y1="227.3" x2="1243.5" y2="227.3"/>
		<line class="st0" x1="1260.5" y1="227.3" x2="1254.8" y2="227.3"/>
		<line class="st0" x1="1271.8" y1="227.3" x2="1266.2" y2="227.3"/>
		<line class="st0" x1="1283.2" y1="227.3" x2="1277.5" y2="227.3"/>
		<line class="st0" x1="1294.5" y1="227.3" x2="1288.9" y2="227.3"/>
		<line class="st0" x1="1305.9" y1="227.3" x2="1300.2" y2="227.3"/>
		<line class="st0" x1="1317.2" y1="227.3" x2="1311.5" y2="227.3"/>
		<line class="st0" x1="1328.5" y1="227.3" x2="1322.9" y2="227.3"/>
		<line class="st0" x1="1339.9" y1="227.3" x2="1334.2" y2="227.3"/>
		<line class="st0" x1="1351.2" y1="227.3" x2="1345.5" y2="227.3"/>
		<line class="st0" x1="1362.6" y1="227.3" x2="1356.9" y2="227.3"/>
		<line class="st0" x1="1373.9" y1="227.3" x2="1368.2" y2="227.3"/>
		<line class="st0" x1="1385.2" y1="227.3" x2="1379.6" y2="227.3"/>
		<line class="st0" x1="1396.6" y1="227.3" x2="1390.9" y2="227.3"/>
		<line class="st0" x1="1407.9" y1="227.3" x2="1402.2" y2="227.3"/>
		<line class="st0" x1="1419.2" y1="227.3" x2="1413.6" y2="227.3"/>
		<line class="st0" x1="1430.6" y1="227.3" x2="1424.9" y2="227.3"/>
		<line class="st0" x1="1441.9" y1="227.3" x2="1436.3" y2="227.3"/>
		<line class="st0" x1="1453.3" y1="227.3" x2="1447.6" y2="227.3"/>
		<line class="st0" x1="1464.6" y1="227.3" x2="1458.9" y2="227.3"/>
		<line class="st0" x1="1475.9" y1="227.3" x2="1470.3" y2="227.3"/>
		<line class="st0" x1="1487.3" y1="227.3" x2="1481.6" y2="227.3"/>
		<line class="st0" x1="1498.6" y1="227.3" x2="1492.9" y2="227.3"/>
		<line class="st0" x1="1510" y1="227.3" x2="1504.3" y2="227.3"/>
		<line class="st0" x1="1521.3" y1="227.3" x2="1515.6" y2="227.3"/>
		<line class="st0" x1="1532.6" y1="227.3" x2="1527" y2="227.3"/>
		<line class="st0" x1="1544" y1="227.3" x2="1538.3" y2="227.3"/>
	</g>
</g>
</svg>
